STARTFONT 2.1
COMMENT "$XConsortium: us9x17B.bdf /main/2 1996/10/29 18:57:02 drk $"
COMMENT "Hand-pixeled glyphs created with modified X Font Editor (Xfed)"
FONT -HP-HP User-Bold-R-Normal-Serif-13-130-72-72-M-90-ISO8859-1
SIZE 13 72 72 
FONTBOUNDINGBOX 9 17 0 -4
STARTPROPERTIES 25
COMMENT "Begin X Logical Font Description (XLFD) Version 1.5"
COPYRIGHT "(c) Copyright 1994, Hewlett Packard Company"
NOTICE "Created by the User Interaction Design Group, July 1994."
NOTICE "Hewlett Packard Company, 3000 Hanover St., Palo Alto, CA 94303, USA"
FONTNAME_REGISTRY ""
FOUNDRY "HP"
FAMILY_NAME "HP User"
WEIGHT_NAME "Bold"
SLANT "R"
ADD_STYLE_NAME "Serif"
SETWIDTH_NAME "Normal"
PIXEL_SIZE 13
POINT_SIZE 130
RESOLUTION_X 72
RESOLUTION_Y 72
SPACING "M"
AVERAGE_WIDTH 90
CHARSET_REGISTRY "ISO8859"
CHARSET_ENCODING "1"
COMMENT "End X Logical Font Description (XLFD)"
CHARSET_COLLECTIONS "ISO8859-1"
FULL_NAME "HP User9x17B"
CAP_HEIGHT 10
X_HEIGHT 7
FONT_ASCENT 13
FONT_DESCENT 4
DEFAULT_CHAR 32
COMMENT "End of Font Properties"
ENDPROPERTIES
CHARS 223
STARTCHAR Null
ENCODING 0
SWIDTH 692 0
DWIDTH 9 0
BBX 8 17 1 -4
BITMAP
00
88
c8
e8
b8
98
88
00
19
19
19
19
19
0E
00
00
00
ENDCHAR
STARTCHAR StartOfHeading
ENCODING 1
SWIDTH 692 0
DWIDTH 9 0
BBX 8 17 1 -4
BITMAP
00
78
c0
f0
38
18
F0
00
19
19
1F
19
19
19
00
00
00
ENDCHAR
STARTCHAR StartOfText
ENCODING 2
SWIDTH 692 0
DWIDTH 9 0
BBX 8 17 1 -4
BITMAP
00
78
c0
f0
38
18
F0
00
31
1A
0c
0e
13
11
00
00
00
ENDCHAR
STARTCHAR EndOfText
ENCODING 3
SWIDTH 692 0
DWIDTH 9 0
BBX 8 17 1 -4
BITMAP
00
F8
c0
F0
c0
c0
F8
00
31
1A
0c
0e
13
11
00
00
00
ENDCHAR
STARTCHAR EndOfTransmit
ENCODING 4
SWIDTH 692 0
DWIDTH 9 0
BBX 8 17 1 -4
BITMAP
00
F8
c0
F0
c0
c0
F8
00
3F
0c
0c
0c
0c
0c
00
00
00
ENDCHAR
STARTCHAR Enquiry
ENCODING 5
SWIDTH 692 0
DWIDTH 9 0
BBX 8 17 1 -4
BITMAP
00
F8
c0
F0
c0
c0
F8
00
1E
33
33
33
33
1E
03
00
00
ENDCHAR
STARTCHAR Acknowledge
ENCODING 6
SWIDTH 692 0
DWIDTH 9 0
BBX 8 17 1 -4
BITMAP
00
30
70
58
F8
8c
8c
00
19
1a
1C
1e
1b
19
00
00
00
ENDCHAR
STARTCHAR Bell
ENCODING 7
SWIDTH 692 0
DWIDTH 9 0
BBX 8 17 1 -4
BITMAP
00
04
08
18
3c
2c
66
46
46
46
c3
83
FF
0c
0e
04
00
ENDCHAR
STARTCHAR BackSpace
ENCODING 8
SWIDTH 692 0
DWIDTH 9 0
BBX 8 17 1 -4
BITMAP
00
F8
cc
F8
cc
cc
F8
00
0F
18
1E
07
03
1E
00
00
00
ENDCHAR
STARTCHAR HorizontalTab
ENCODING 9
SWIDTH 692 0
DWIDTH 9 0
BBX 8 17 1 -4
BITMAP
00
c8
c8
F8
c8
c8
c8
00
3F
0c
0c
0c
0c
0c
00
00
00
ENDCHAR
STARTCHAR LineFeed
ENCODING 10
SWIDTH 692 0
DWIDTH 9 0
BBX 8 17 1 -4
BITMAP
00
c0
c0
c0
c0
c0
F8
00
1F
18
1E
18
18
18
00
00
00
ENDCHAR
STARTCHAR VerticalTab
ENCODING 11
SWIDTH 692 0
DWIDTH 9 0
BBX 8 17 1 -4
BITMAP
00
c4
c4
68
68
30
30
00
3F
0c
0c
0c
0c
0c
00
00
00
ENDCHAR
STARTCHAR FormFeed
ENCODING 12
SWIDTH 692 0
DWIDTH 9 0
BBX 8 17 1 -4
BITMAP
00
F8
c0
F0
c0
c0
c0
00
1F
18
1E
18
18
18
00
00
00
ENDCHAR
STARTCHAR CarriageReturn
ENCODING 13
SWIDTH 692 0
DWIDTH 9 0
BBX 8 17 1 -4
BITMAP
00
70
c8
c0
c0
c8
70
00
1E
19
19
1e
1b
19
00
00
00
ENDCHAR
STARTCHAR ShiftOut
ENCODING 14
SWIDTH 692 0
DWIDTH 9 0
BBX 8 17 1 -4
BITMAP
00
78
c0
f0
38
18
F0
00
1E
33
33
33
33
1E
00
00
00
ENDCHAR
STARTCHAR ShiftIn
ENCODING 15
SWIDTH 692 0
DWIDTH 9 0
BBX 7 17 1 -4
BITMAP
00
78
c0
f0
38
18
F0
00
1E
0c
0c
0c
0c
1E
00
00
00
ENDCHAR
STARTCHAR DataLinkEscape
ENCODING 16
SWIDTH 692 0
DWIDTH 9 0
BBX 8 17 1 -4
BITMAP
00
f0
c8
c8
c8
c8
f0
00
18
18
18
18
18
1F
00
00
00
ENDCHAR
STARTCHAR DevCtrl1orXon
ENCODING 17
SWIDTH 692 0
DWIDTH 9 0
BBX 7 17 1 -4
BITMAP
00
F0
c8
c8
c8
c8
F0
00
0c
1C
0c
0c
0c
0c
00
00
00
ENDCHAR
STARTCHAR DeviceControl2
ENCODING 18
SWIDTH 692 0
DWIDTH 9 0
BBX 8 17 1 -4
BITMAP
00
F0
c8
c8
c8
c8
F0
00
0E
13
03
06
0c
18
1f
00
00
ENDCHAR
STARTCHAR DevCtrl3orXoff
ENCODING 19
SWIDTH 692 0
DWIDTH 9 0
BBX 8 17 1 -4
BITMAP
00
F0
c8
c8
c8
c8
F0
00
0E
13
06
03
13
0E
00
00
00
ENDCHAR
STARTCHAR DeviceControl4
ENCODING 20
SWIDTH 692 0
DWIDTH 9 0
BBX 8 17 1 -4
BITMAP
00
F0
c8
c8
c8
c8
F0
08
08
12
16
36
7f
06
06
00
00
ENDCHAR
STARTCHAR NegAcknowledge
ENCODING 21
SWIDTH 692 0
DWIDTH 9 0
BBX 8 17 1 -4
BITMAP
00
88
c8
e8
b8
98
88
00
19
1a
1C
1e
1b
19
00
00
00
ENDCHAR
STARTCHAR SynchronusIdle
ENCODING 22
SWIDTH 692 0
DWIDTH 9 0
BBX 8 17 1 -4
BITMAP
00
78
c0
f0
38
18
F0
00
11
19
0e
06
06
06
00
00
00
ENDCHAR
STARTCHAR EndTransmit
ENCODING 23
SWIDTH 692 0
DWIDTH 9 0
BBX 8 17 1 -4
BITMAP
00
F8
c0
F0
c0
c0
F8
00
3E
33
3E
33
33
3E
00
00
00
ENDCHAR
STARTCHAR Cancel
ENCODING 24
SWIDTH 692 0
DWIDTH 9 0
BBX 8 17 1 -4
BITMAP
00
70
c8
c0
c0
c8
70
00
11
19
1d
17
13
11
00
00
00
ENDCHAR
STARTCHAR EndOfMedium
ENCODING 25
SWIDTH 692 0
DWIDTH 9 0
BBX 8 17 1 -4
BITMAP
00
F8
c0
F0
c0
c0
F8
00
23
37
3f
2b
23
23
00
00
00
ENDCHAR
STARTCHAR Substitute
ENCODING 26
SWIDTH 692 0
DWIDTH 9 0
BBX 8 17 1 -4
BITMAP
00
78
c0
f0
38
18
F0
00
3e
33
3E
33
33
3E
00
00
00
ENDCHAR
STARTCHAR Escape
ENCODING 27
SWIDTH 692 0
DWIDTH 9 0
BBX 8 17 1 -4
BITMAP
00
F8
c0
F0
c0
c0
F8
00
0E
19
18
18
19
0E
00
00
00
ENDCHAR
STARTCHAR FileSeparator
ENCODING 28
SWIDTH 692 0
DWIDTH 9 0
BBX 8 17 1 -4
BITMAP
00
F8
c0
F0
c0
c0
c0
00
0F
18
1E
07
03
1E
00
00
00
ENDCHAR
STARTCHAR GroupSeparator
ENCODING 29
SWIDTH 692 0
DWIDTH 9 0
BBX 8 17 1 -4
BITMAP
00
70
c8
c0
d8
c8
70
00
0F
18
1E
07
03
1E
00
00
00
ENDCHAR
STARTCHAR RecordSeparatr
ENCODING 30
SWIDTH 692 0
DWIDTH 9 0
BBX 8 17 1 -4
BITMAP
00
F0
c8
d8
F0
d8
cc
00
0F
18
1E
07
03
1E
00
00
00
ENDCHAR
STARTCHAR UnitSeparator
ENCODING 31
SWIDTH 692 0
DWIDTH 9 0
BBX 8 17 1 -4
BITMAP
00
c8
c8
c8
c8
c8
70
00
0F
18
1E
07
03
1E
00
00
00
ENDCHAR
STARTCHAR PrintableSpace
ENCODING 32
SWIDTH 692 0
DWIDTH 9 0
BBX 9 17 0 -4
BITMAP
0000
0000
0000
0000
0000
0000
0000
0000
0000
0000
0000
0000
0000
0000
0000
0000
0000
ENDCHAR
STARTCHAR Exclamation
ENCODING 33
SWIDTH 692 0
DWIDTH 9 0
BBX 3 17 3 -4
BITMAP
00
00
e0
e0
e0
e0
e0
e0
e0
e0
00
40
e0
e0
40
00
00
ENDCHAR
STARTCHAR NeutrlDblQuote
ENCODING 34
SWIDTH 692 0
DWIDTH 9 0
BBX 6 17 2 -4
BITMAP
00
00
cc00
cc00
cc00
8800
8800
00
00
00
00
00
00
00
00
00
00
ENDCHAR
STARTCHAR NumberSign
ENCODING 35
SWIDTH 692 0
DWIDTH 9 0
BBX 8 17 1 -4
BITMAP
00
00
66
66
66
ff00
ff00
66
66
ff00
ff00
66
66
66
00
00
00
ENDCHAR
STARTCHAR DollarSign
ENCODING 36
SWIDTH 692 0
DWIDTH 9 0
BBX 6 17 2 -4
BITMAP
00
30
30
7c
cc
c4
e0
70
38
1c
8c
cc
f8
30
30
00
00
ENDCHAR
STARTCHAR PerCentSign
ENCODING 37
SWIDTH 692 0
DWIDTH 9 0
BBX 9 17 0 -4
BITMAP
00
0000
7300
db00
de
76
0c
0c
18
18
37
3d80
6d80
67
00
00
00
ENDCHAR
STARTCHAR Ampersand
ENCODING 38
SWIDTH 692 0
DWIDTH 9 0
BBX 8 17 1 -4
BITMAP
00
00
78
cc
cc
cc
78
30
7800
cd00
cf00
ce
ce
7b00
00
00
00
ENDCHAR
STARTCHAR SingleCloseQut
ENCODING 39
SWIDTH 692 0
DWIDTH 9 0
BBX 4 17 3 -4
BITMAP
00
20
70
70
30
60
c0
00
00
00
00
00
00
00
00
00
00
ENDCHAR
STARTCHAR OpenParen
ENCODING 40
SWIDTH 692 0
DWIDTH 9 0
BBX 5 17 2 -4
BITMAP
00
18
30
70
60
e0
e0
e0
e0
e0
e0
60
70
30
18
00
00
ENDCHAR
STARTCHAR CloseParen
ENCODING 41
SWIDTH 692 0
DWIDTH 9 0
BBX 5 17 3 -4
BITMAP
00
c0
60
70
30
38
38
38
38
38
38
30
70
60
c0
00
00
ENDCHAR
STARTCHAR Asterisk
ENCODING 42
SWIDTH 692 0
DWIDTH 9 0
BBX 8 17 1 -4
BITMAP
00
00
00
00
18
db00
7e00
3c
3c
7e
db00
1800
00
00
00
00
00
ENDCHAR
STARTCHAR PlusSign
ENCODING 43
SWIDTH 692 0
DWIDTH 9 0
BBX 8 17 1 -4
BITMAP
00
00
00
00
18
18
18
ff
ff
18
18
18
00
00
00
00
00
ENDCHAR
STARTCHAR Comma
ENCODING 44
SWIDTH 692 0
DWIDTH 9 0
BBX 4 17 2 -4
BITMAP
00
00
00
00
00
00
00
00
00
00
20
70
70
30
60
c0
00
ENDCHAR
STARTCHAR Hyphen
ENCODING 45
SWIDTH 692 0
DWIDTH 9 0
BBX 7 17 1 -4
BITMAP
00
00
00
00
00
00
00
fe
fe
00
00
00
00
00
00
00
00
ENDCHAR
STARTCHAR Period
ENCODING 46
SWIDTH 692 0
DWIDTH 9 0
BBX 3 17 3 -4
BITMAP
00
00
00
00
00
00
00
00
00
00
40
e0
e0
40
00
00
00
ENDCHAR
STARTCHAR Slash
ENCODING 47
SWIDTH 692 0
DWIDTH 9 0
BBX 8 17 1 -4
BITMAP
0000
0300
0300
0600
06
0c
0c
18
18
30
30
60
60
c0
c0
00
00
ENDCHAR
STARTCHAR Zero
ENCODING 48
SWIDTH 692 0
DWIDTH 9 0
BBX 8 17 1 -4
BITMAP
00
00
00
3c
66
c300
c300
db00
db00
c300
c300
66
3c
00
00
00
00
ENDCHAR
STARTCHAR One
ENCODING 49
SWIDTH 692 0
DWIDTH 9 0
BBX 4 17 3 -4
BITMAP
00
00
00
30
70
b0
30
30
30
30
30
30
30
00
00
00
00
ENDCHAR
STARTCHAR Two
ENCODING 50
SWIDTH 692 0
DWIDTH 9 0
BBX 7 17 1 -4
BITMAP
00
00
00
7c
c6
c6
06
0c
18
30
62
fe
fe
00
00
00
00
ENDCHAR
STARTCHAR Three
ENCODING 51
SWIDTH 692 0
DWIDTH 9 0
BBX 7 17 1 -4
BITMAP
00
00
00
3c
66
06
0c
3c
0e
06
06
c6
7c
00
00
00
00
ENDCHAR
STARTCHAR Four
ENCODING 52
SWIDTH 692 0
DWIDTH 9 0
BBX 8 17 1 -4
BITMAP
00
00
18
10
30
20
64
4c
cc
ff
ff00
0c
0c
00
00
00
00
ENDCHAR
STARTCHAR Five
ENCODING 53
SWIDTH 692 0
DWIDTH 9 0
BBX 7 17 1 -4
BITMAP
00
00
00
7e
60
60
78
0c
06
06
06
cc
78
00
00
00
00
ENDCHAR
STARTCHAR Six
ENCODING 54
SWIDTH 692 0
DWIDTH 9 0
BBX 7 17 1 -4
BITMAP
00
00
00
3c
60
c0
c0
fc
e6
c6
c6
c600
7c
00
00
00
00
ENDCHAR
STARTCHAR Seven
ENCODING 55
SWIDTH 692 0
DWIDTH 9 0
BBX 7 17 1 -4
BITMAP
00
00
00
fe00
fe00
84
04
08
08
08
10
10
10
00
00
00
00
ENDCHAR
STARTCHAR Eight
ENCODING 56
SWIDTH 692 0
DWIDTH 9 0
BBX 7 17 1 -4
BITMAP
00
00
00
7c
c6
c6
c6
7c
c6
c6
c6
c6
7c
00
00
00
00
ENDCHAR
STARTCHAR Nine
ENCODING 57
SWIDTH 692 0
DWIDTH 9 0
BBX 7 17 1 -4
BITMAP
00
00
00
7c
c6
c6
c6
c6
7e
06
06
0c
78
00
00
00
00
ENDCHAR
STARTCHAR Colon
ENCODING 58
SWIDTH 692 0
DWIDTH 9 0
BBX 3 17 3 -4
BITMAP
00
00
00
00
00
40
e0
e0
40
00
40
e0
e0
40
00
00
00
ENDCHAR
STARTCHAR Simicolon
ENCODING 59
SWIDTH 692 0
DWIDTH 9 0
BBX 4 17 3 -4
BITMAP
00
00
00
00
00
20
70
70
20
00
20
70
70
30
60
c0
00
ENDCHAR
STARTCHAR LessThanSign
ENCODING 60
SWIDTH 692 0
DWIDTH 9 0
BBX 8 17 1 -4
BITMAP
00
00
00
00
03
0e
38
e0
e0
38
0e
03
00
00
00
00
00
ENDCHAR
STARTCHAR EqualsSign
ENCODING 61
SWIDTH 692 0
DWIDTH 9 0
BBX 7 17 1 -4
BITMAP
00
00
00
00
00
fe
fe
00
00
fe
fe
00
00
00
00
00
00
ENDCHAR
STARTCHAR GreatrThanSign
ENCODING 62
SWIDTH 692 0
DWIDTH 9 0
BBX 8 17 1 -4
BITMAP
00
00
00
00
c0
70
1c
07
07
1c
70
c0
00
00
00
00
00
ENDCHAR
STARTCHAR QuestionMark
ENCODING 63
SWIDTH 692 0
DWIDTH 9 0
BBX 7 17 1 -4
BITMAP
00
00
7c
ce
ce
0e
1c
38
30
30
00
10
38
38
10
00
00
ENDCHAR
STARTCHAR CommerclAtSign
ENCODING 64
SWIDTH 692 0
DWIDTH 9 0
BBX 8 17 1 -4
BITMAP
00
00
3e
6300
c300
cf00
db00
db00
db00
db00
cf00
c0
60
3e
00
00
00
ENDCHAR
STARTCHAR A
ENCODING 65
SWIDTH 692 0
DWIDTH 9 0
BBX 9 17 0 -4
BITMAP
00
00
00
0800
0800
1c00
1c00
3600
2600
3E00
6300
4300
e780
00
00
00
00
ENDCHAR
STARTCHAR B
ENCODING 66
SWIDTH 692 0
DWIDTH 9 0
BBX 8 17 1 -4
BITMAP
00
00
00
fc
66
66
66
7e
63
63
63
63
fe
00
00
00
00
ENDCHAR
STARTCHAR C
ENCODING 67
SWIDTH 692 0
DWIDTH 9 0
BBX 7 17 1 -4
BITMAP
00
00
00
3E
62
c2
c0
c0
c0
c0
c6
66
3C
00
00
00
00
ENDCHAR
STARTCHAR D
ENCODING 68
SWIDTH 692 0
DWIDTH 9 0
BBX 8 17 1 -4
BITMAP
00
00
00
FC
66
63
63
63
63
63
63
66
FC
00
00
00
00
ENDCHAR
STARTCHAR E
ENCODING 69
SWIDTH 692 0
DWIDTH 9 0
BBX 8 17 1 -4
BITMAP
00
00
00
Ff
61
61
64
7c
64
60
61
61
Ff
00
00
00
00
ENDCHAR
STARTCHAR F
ENCODING 70
SWIDTH 692 0
DWIDTH 9 0
BBX 8 17 1 -4
BITMAP
00
00
00
Ff
61
61
64
7c
64
60
60
60
F8
00
00
00
00
ENDCHAR
STARTCHAR G
ENCODING 71
SWIDTH 692 0
DWIDTH 9 0
BBX 8 17 1 -4
BITMAP
00
00
00
3E
62
c2
c0
c0
cf
c6
c6
66
3C
00
00
00
00
ENDCHAR
STARTCHAR H
ENCODING 72
SWIDTH 692 0
DWIDTH 9 0
BBX 8 17 1 -4
BITMAP
00
00
00
f700
66
66
66
7e
66
66
66
6600
f700
00
00
00
00
ENDCHAR
STARTCHAR I
ENCODING 73
SWIDTH 692 0
DWIDTH 9 0
BBX 6 17 2 -4
BITMAP
00
00
00
Fc
30
30
30
30
30
30
30
30
Fc
00
00
00
00
ENDCHAR
STARTCHAR J
ENCODING 74
SWIDTH 692 0
DWIDTH 9 0
BBX 7 17 1 -4
BITMAP
00
00
00
3E
0c
0c
0c
0c
0c
0c
cc
cc
78
00
00
00
00
ENDCHAR
STARTCHAR K
ENCODING 75
SWIDTH 692 0
DWIDTH 9 0
BBX 8 17 1 -4
BITMAP
00
00
00
f3
66
64
6c
78
7c
66
66
63
f3
00
00
00
00
ENDCHAR
STARTCHAR L
ENCODING 76
SWIDTH 692 0
DWIDTH 9 0
BBX 7 17 1 -4
BITMAP
00
00
00
f0
60
60
60
60
60
60
62
62
FE
00
00
00
00
ENDCHAR
STARTCHAR M
ENCODING 77
SWIDTH 692 0
DWIDTH 9 0
BBX 9 17 0 -4
BITMAP
00
00
00
C180
6300
6300
7700
7f00
6b00
6b00
6300
6300
f780
00
00
00
00
ENDCHAR
STARTCHAR N
ENCODING 78
SWIDTH 692 0
DWIDTH 9 0
BBX 8 17 1 -4
BITMAP
00
00
00
e7
62
72
72
5a
5e
4e
4e
46
E6
00
00
00
00
ENDCHAR
STARTCHAR O
ENCODING 79
SWIDTH 692 0
DWIDTH 9 0
BBX 8 17 1 -4
BITMAP
00
00
00
3C
66
c3
c3
c3
c3
c3
c3
66
3C
00
00
00
00
ENDCHAR
STARTCHAR P
ENCODING 80
SWIDTH 692 0
DWIDTH 9 0
BBX 8 17 1 -4
BITMAP
00
00
00
Fe
63
63
63
63
7e
60
60
60
F8
00
00
00
00
ENDCHAR
STARTCHAR Q
ENCODING 81
SWIDTH 692 0
DWIDTH 9 0
BBX 8 17 1 -4
BITMAP
00
00
00
3C
66
c3
c3
c3
c3
c3
c3
6e
3C
0c
06
03
00
ENDCHAR
STARTCHAR R
ENCODING 82
SWIDTH 692 0
DWIDTH 9 0
BBX 8 17 1 -4
BITMAP
00
00
00
FC
66
66
66
7c
6c
6c
66
66
E7
00
00
00
00
ENDCHAR
STARTCHAR S
ENCODING 83
SWIDTH 692 0
DWIDTH 9 0
BBX 6 17 2 -4
BITMAP
00
00
00
7C
c4
c4
e0
70
38
1c
8c
8c
F8
00
00
00
00
ENDCHAR
STARTCHAR T
ENCODING 84
SWIDTH 692 0
DWIDTH 9 0
BBX 8 17 1 -4
BITMAP
00
00
00
Ff
99
99
18
18
18
18
18
18
7e
00
00
00
00
ENDCHAR
STARTCHAR U
ENCODING 85
SWIDTH 692 0
DWIDTH 9 0
BBX 8 17 1 -4
BITMAP
00
00
00
f7
62
62
62
62
62
62
62
62
3C
00
00
00
00
ENDCHAR
STARTCHAR V
ENCODING 86
SWIDTH 692 0
DWIDTH 9 0
BBX 9 17 0 -4
BITMAP
00
00
00
f380
6100
6300
3200
3200
3600
1c00
1c00
0800
0800
00
00
00
00
ENDCHAR
STARTCHAR W
ENCODING 87
SWIDTH 692 0
DWIDTH 9 0
BBX 9 17 0 -4
BITMAP
00
00
00
f380
6100
6100
6900
6900
6d00
3e00
3600
3200
3200
00
00
00
00
ENDCHAR
STARTCHAR X
ENCODING 88
SWIDTH 692 0
DWIDTH 9 0
BBX 8 17 1 -4
BITMAP
00
00
00
f7
66
34
3c
18
18
3c
2c
66
Ef00
00
00
00
00
ENDCHAR
STARTCHAR Y
ENCODING 89
SWIDTH 692 0
DWIDTH 9 0
BBX 9 17 0 -4
BITMAP
00
00
00
f380
6100
3300
3200
1e00
1c00
0c00
0c00
0c00
3f00
00
00
00
00
ENDCHAR
STARTCHAR Z
ENCODING 90
SWIDTH 692 0
DWIDTH 9 0
BBX 8 17 1 -4
BITMAP
00
00
00
Ff
83
87
0e
1c
38
70
e1
c1
Ff
00
00
00
00
ENDCHAR
STARTCHAR OpenBracket
ENCODING 91
SWIDTH 692 0
DWIDTH 9 0
BBX 5 17 2 -4
BITMAP
00
f8
e0
e0
e0
e0
e0
e0
e0
e0
e0
e0
e0
e0
f8
00
00
ENDCHAR
STARTCHAR BackSlash
ENCODING 92
SWIDTH 692 0
DWIDTH 9 0
BBX 8 17 1 -4
BITMAP
00
c0
c0
60
60
30
30
18
18
0c
0c
06
06
0300
0300
00
00
ENDCHAR
STARTCHAR CloseBracket
ENCODING 93
SWIDTH 692 0
DWIDTH 9 0
BBX 5 17 2 -4
BITMAP
00
f8
38
38
38
38
38
38
38
38
38
38
38
38
f8
00
00
ENDCHAR
STARTCHAR Circumflex
ENCODING 94
SWIDTH 692 0
DWIDTH 9 0
BBX 7 17 1 -4
BITMAP
00
00
10
38
7c
c6
00
00
00
00
00
00
00
00
00
00
00
ENDCHAR
STARTCHAR Underscore
ENCODING 95
SWIDTH 692 0
DWIDTH 9 0
BBX 9 17 0 -4
BITMAP
00
00
00
00
00
00
00
00
00
00
00
00
00
FF80
00
00
00
ENDCHAR
STARTCHAR SingleOpenQuot
ENCODING 96
SWIDTH 692 0
DWIDTH 9 0
BBX 4 17 3 -4
BITMAP
00
00
30
60
c0
e0
e0
40
00
00
00
00
00
00
00
00
00
ENDCHAR
STARTCHAR a
ENCODING 97
SWIDTH 692 0
DWIDTH 9 0
BBX 8 17 1 -4
BITMAP
00
00
00
00
00
00
3c
66
06
7e
c6
ce
7b00
00
00
00
00
ENDCHAR
STARTCHAR b
ENCODING 98
SWIDTH 692 0
DWIDTH 9 0
BBX 8 17 1 -4
BITMAP
00
00
00
e0
60
60
6e
7300
6300
6300
6300
7300
6e
00
00
00
00
ENDCHAR
STARTCHAR c
ENCODING 99
SWIDTH 692 0
DWIDTH 9 0
BBX 7 17 1 -4
BITMAP
00
00
00
00
00
00
7c
c6
c0
c0
c0
c6
7c
00
00
00
00
ENDCHAR
STARTCHAR d
ENCODING 100
SWIDTH 692 0
DWIDTH 9 0
BBX 8 17 1 -4
BITMAP
00
00
00
0e
06
06
76
ce
c6
c6
c6
ce
7700
00
00
00
00
ENDCHAR
STARTCHAR e
ENCODING 101
SWIDTH 692 0
DWIDTH 9 0
BBX 7 17 1 -4
BITMAP
00
00
00
00
00
00
7c
c6
c6
fe
c0
c6
7c
00
00
00
00
ENDCHAR
STARTCHAR f
ENCODING 102
SWIDTH 692 0
DWIDTH 9 0
BBX 7 17 2 -4
BITMAP
00
00
00
1e
30
30
fc
30
30
30
30
30
fc
00
00
00
00
ENDCHAR
STARTCHAR g
ENCODING 103
SWIDTH 692 0
DWIDTH 9 0
BBX 8 17 1 -4
BITMAP
0000
0000
0000
0000
0000
0000
7b00
cc0000
cc00
cc00
7800
c000
7e00
c30000
c70000
7e00
0000
ENDCHAR
STARTCHAR h
ENCODING 104
SWIDTH 692 0
DWIDTH 9 0
BBX 8 17 1 -4
BITMAP
00
00
00
e0
60
60
6c
76
66
66
66
66
ef00
00
00
00
00
ENDCHAR
STARTCHAR i
ENCODING 105
SWIDTH 692 0
DWIDTH 9 0
BBX 6 17 2 -4
BITMAP
00
00
00
30
30
00
f0
30
30
30
30
30
fc
00
00
00
00
ENDCHAR
STARTCHAR j
ENCODING 106
SWIDTH 692 0
DWIDTH 9 0
BBX 5 17 1 -4
BITMAP
00
00
00
18
18
00
78
18
18
18
18
18
18
18
98
70
00
ENDCHAR
STARTCHAR k
ENCODING 107
SWIDTH 692 0
DWIDTH 9 0
BBX 8 17 1 -4
BITMAP
00
00
00
e0
60
60
6700
66
7c
78
6c
66
f700
00
00
00
00
ENDCHAR
STARTCHAR l
ENCODING 108
SWIDTH 692 0
DWIDTH 9 0
BBX 6 17 2 -4
BITMAP
00
00
00
f0
30
30
30
30
30
30
30
30
fc
00
00
00
00
ENDCHAR
STARTCHAR m
ENCODING 109
SWIDTH 692 0
DWIDTH 9 0
BBX 9 17 0 -4
BITMAP
00
00
00
00
00
00
db00
6d80
6d80
6d80
6d80
6d80
ed80
00
00
00
00
ENDCHAR
STARTCHAR n
ENCODING 110
SWIDTH 692 0
DWIDTH 9 0
BBX 8 17 1 -4
BITMAP
00
00
00
00
00
00
dc
76
66
66
66
66
ef00
00
00
00
00
ENDCHAR
STARTCHAR o
ENCODING 111
SWIDTH 692 0
DWIDTH 9 0
BBX 7 17 1 -4
BITMAP
00
00
00
00
00
00
7c
c6
c6
c6
c6
c6
7c
00
00
00
00
ENDCHAR
STARTCHAR p
ENCODING 112
SWIDTH 692 0
DWIDTH 9 0
BBX 8 17 1 -4
BITMAP
00
00
00
00
00
00
ee
73
63
63
63
73
6e
60
60
f0
00
ENDCHAR
STARTCHAR q
ENCODING 113
SWIDTH 692 0
DWIDTH 9 0
BBX 8 17 1 -4
BITMAP
00
00
00
00
00
00
76
ce
c6
c6
c6
ce
76
06
06
0f00
00
ENDCHAR
STARTCHAR r
ENCODING 114
SWIDTH 692 0
DWIDTH 9 0
BBX 7 17 1 -4
BITMAP
00
00
00
00
00
00
ee
7600
60
60
60
60
f8
00
00
00
00
ENDCHAR
STARTCHAR s
ENCODING 115
SWIDTH 692 0
DWIDTH 9 0
BBX 6 17 2 -4
BITMAP
00
00
00
00
00
00
7c
84
e0
78
1c
84
f8
00
00
00
00
ENDCHAR
STARTCHAR t
ENCODING 116
SWIDTH 692 0
DWIDTH 9 0
BBX 7 17 1 -4
BITMAP
00
00
00
00
30
30
fc
30
30
30
30
32
1c
00
00
00
00
ENDCHAR
STARTCHAR u
ENCODING 117
SWIDTH 692 0
DWIDTH 9 0
BBX 8 17 1 -4
BITMAP
00
00
00
00
00
00
ee
66
66
66
66
6e00
3b00
00
00
00
00
ENDCHAR
STARTCHAR v
ENCODING 118
SWIDTH 692 0
DWIDTH 9 0
BBX 8 17 1 -4
BITMAP
00
00
00
00
00
00
f700
62
66
34
3c
18
18
00
00
00
00
ENDCHAR
STARTCHAR w
ENCODING 119
SWIDTH 692 0
DWIDTH 9 0
BBX 9 17 0 -4
BITMAP
00
00
00
00
00
00
e380
4100
6d00
6d00
36
36
36
00
00
00
00
ENDCHAR
STARTCHAR x
ENCODING 120
SWIDTH 692 0
DWIDTH 9 0
BBX 8 17 1 -4
BITMAP
00
00
00
00
00
00
f700
66
3c
18
3c
66
ef00
00
00
00
00
ENDCHAR
STARTCHAR y
ENCODING 121
SWIDTH 692 0
DWIDTH 9 0
BBX 8 17 1 -4
BITMAP
00
00
00
00
00
00
f700
62
66
34
3c
1800
18
10
70
60
00
ENDCHAR
STARTCHAR z
ENCODING 122
SWIDTH 692 0
DWIDTH 9 0
BBX 7 17 1 -4
BITMAP
00
00
00
00
00
00
7e
46
0c
18
30
62
fe
00
00
00
00
ENDCHAR
STARTCHAR OpenBrace
ENCODING 123
SWIDTH 692 0
DWIDTH 9 0
BBX 7 17 1 -4
BITMAP
00
1e
38
38
38
38
30
e0
30
38
38
38
38
38
1e
00
00
ENDCHAR
STARTCHAR LongVertMark
ENCODING 124
SWIDTH 692 0
DWIDTH 9 0
BBX 2 17 4 -4
BITMAP
00
00
c0
c0
c0
c0
c0
c0
c0
c0
c0
c0
c0
c0
00
00
00
ENDCHAR
STARTCHAR CloseBrace
ENCODING 125
SWIDTH 692 0
DWIDTH 9 0
BBX 7 17 2 -4
BITMAP
00
f0
38
38
38
38
18
0e00
18
38
38
38
38
38
f0
00
00
ENDCHAR
STARTCHAR OneWavyLine
ENCODING 126
SWIDTH 692 0
DWIDTH 9 0
BBX 8 17 1 -4
BITMAP
00
00
00
00
00
00
30
7900
9e
0c
00
00
00
00
00
00
00
ENDCHAR
STARTCHAR MediumShading
ENCODING 127
SWIDTH 692 0
DWIDTH 9 0
BBX 9 17 0 -4
BITMAP
Cc80
Cc80
3300
3300
cc80
cc80
3300
3300
Cc80
cc80
3300
3300
Cc80
Cc80
3300
3300
cc80
ENDCHAR
STARTCHAR InvExclamation
ENCODING 161
SWIDTH 692 0
DWIDTH 9 0
BBX 3 17 3 -4
BITMAP
00
00
40
e0
e0
40
00
e0
e0
e0
e0
e0
e0
e0
e0
00
00
ENDCHAR
STARTCHAR CentSign
ENCODING 162
SWIDTH 692 0
DWIDTH 9 0
BBX 7 17 1 -4
BITMAP
00
00
00
10
10
7e
c6
c0
c0
c0
e6
7c
10
10
00
00
00
ENDCHAR
STARTCHAR SterlingSign
ENCODING 163
SWIDTH 692 0
DWIDTH 9 0
BBX 8 17 1 -4
BITMAP
00
00
00
1e
3300
30
fc
30
fc
30
30
7900
ee
00
00
00
00
ENDCHAR
STARTCHAR CurrencySymbol
ENCODING 164
SWIDTH 692 0
DWIDTH 9 0
BBX 8 17 1 -4
BITMAP
00
00
00
4200
ff00
66
42
42
66
ff00
4200
00
00
00
00
00
00
ENDCHAR
STARTCHAR Yensign
ENCODING 165
SWIDTH 692 0
DWIDTH 9 0
BBX 8 17 1 -4
BITMAP
00
00
0000
f700
6200
6600
3400
3c00
ff00
1800
ff
18
3c
00
00
00
00
ENDCHAR
STARTCHAR BrokenVertMark
ENCODING 166
SWIDTH 692 0
DWIDTH 9 0
BBX 2 17 4 -4
BITMAP
00
00
c0
c0
c0
c0
c0
00
00
c0
c0
c0
c0
c0
00
00
00
ENDCHAR
STARTCHAR SectionMark
ENCODING 167
SWIDTH 692 0
DWIDTH 9 0
BBX 5 17 2 -4
BITMAP
00
00
00
70
c8
e0
70
b8
98
c8
e8
70
38
98
70
00
00
ENDCHAR
STARTCHAR diaeresisAccnt
ENCODING 168
SWIDTH 692 0
DWIDTH 9 0
BBX 6 17 2 -4
BITMAP
00
00
00
cc
cc
00
00
00
00
00
00
00
00
00
00
00
00
ENDCHAR
STARTCHAR CopyrightSign
ENCODING 169
SWIDTH 692 0
DWIDTH 9 0
BBX 8 17 1 -4
BITMAP
00
00
00
00
3c
42
9d
b1
b1
9d
42
3c
00
00
00
00
00
ENDCHAR
STARTCHAR FemaleOrdinal
ENCODING 170
SWIDTH 692 0
DWIDTH 9 0
BBX 7 17 1 -4
BITMAP
00
00
78
0c
7c
cc
7e
00
fe
00
00
00
00
00
00
00
00
ENDCHAR
STARTCHAR DblOpenAnglQut
ENCODING 171
SWIDTH 692 0
DWIDTH 9 0
BBX 8 17 1 -4
BITMAP
00
00
00
00
00
1100
33
66
ee
66
33
1100
00
00
00
00
00
ENDCHAR
STARTCHAR NotSign
ENCODING 172
SWIDTH 692 0
DWIDTH 9 0
BBX 8 17 1 -4
BITMAP
00
00
00
00
00
00
00
ff
ff
03
03
03
00
00
00
00
00
ENDCHAR
STARTCHAR SoftHyphen
ENCODING 173
SWIDTH 692 0
DWIDTH 9 0
BBX 7 17 1 -4
BITMAP
00
00
00
00
00
00
00
fe
fe
00
00
00
00
00
00
00
00
ENDCHAR
STARTCHAR RegisTradeMark
ENCODING 174
SWIDTH 692 0
DWIDTH 9 0
BBX 8 17 1 -4
BITMAP
00
00
00
3c
42
b9
ad
b9
ad
a5
42
3c
00
00
00
00
00
ENDCHAR
STARTCHAR macronAccent
ENCODING 175
SWIDTH 692 0
DWIDTH 9 0
BBX 7 17 1 -4
BITMAP
00
00
00
fe
fe
00
00
00
00
00
00
00
00
00
00
00
00
ENDCHAR
STARTCHAR DegreeSign
ENCODING 176
SWIDTH 692 0
DWIDTH 9 0
BBX 6 17 2 -4
BITMAP
00
00
00
78
cc
cc
cc
78
00
00
00
00
00
00
00
00
00
ENDCHAR
STARTCHAR PlusOverMinus
ENCODING 177
SWIDTH 692 0
DWIDTH 9 0
BBX 8 17 1 -4
BITMAP
00
00
00
18
18
ff
ff
18
18
00
ff
ff
00
00
00
00
00
ENDCHAR
STARTCHAR SupNumberTwo
ENCODING 178
SWIDTH 692 0
DWIDTH 9 0
BBX 5 17 2 -4
BITMAP
00
00
70
d800
1800
30
60
c0
f800
00
00
00
00
0000
00
00
00
ENDCHAR
STARTCHAR SupNumberThree
ENCODING 179
SWIDTH 692 0
DWIDTH 9 0
BBX 9 17 0 -4
BITMAP
00
00
70
98
18
7000
1800
98
70
0000
00
00
00
0000
0000
0000
0000
ENDCHAR
STARTCHAR acuteAccent
ENCODING 180
SWIDTH 692 0
DWIDTH 9 0
BBX 5 17 3 -4
BITMAP
00
00
00
38
70
c0
00
00
00
00
00
00
00
00
00
00
00
ENDCHAR
STARTCHAR muGreek
ENCODING 181
SWIDTH 692 0
DWIDTH 9 0
BBX 8 17 1 -4
BITMAP
00
00
00
00
00
00
3300
3300
2200
66
66
6c
db00
c0
80
80
00
ENDCHAR
STARTCHAR ParagraphSign
ENCODING 182
SWIDTH 692 0
DWIDTH 9 0
BBX 8 17 1 -4
BITMAP
00
00
00
7f00
fa
fa
fa
fa
7a
0a
0a
0a
0a
0a
0a
00
00
ENDCHAR
STARTCHAR middleDot
ENCODING 183
SWIDTH 692 0
DWIDTH 9 0
BBX 3 17 3 -4
BITMAP
00
00
00
00
00
00
40
e0
e0
40
00
00
00
00
00
00
00
ENDCHAR
STARTCHAR cedilla
ENCODING 184
SWIDTH 692 0
DWIDTH 9 0
BBX 5 17 2 -4
BITMAP
00
00
00
00
00
00
00
00
00
00
00
00
00
20
70
18
f0
ENDCHAR
STARTCHAR SupNumberOne
ENCODING 185
SWIDTH 692 0
DWIDTH 9 0
BBX 4 17 2 -4
BITMAP
00
00
30
70
b0
30
30
30
0000
00
00
00
00
00
0000
0000
0000
ENDCHAR
STARTCHAR MaleOrdinal
ENCODING 186
SWIDTH 692 0
DWIDTH 9 0
BBX 6 17 2 -4
BITMAP
00
00
78
cc
cc
cc
78
00
fc
00
00
00
00
00
00
00
00
ENDCHAR
STARTCHAR DblClosAnglQut
ENCODING 187
SWIDTH 692 0
DWIDTH 9 0
BBX 8 17 1 -4
BITMAP
00
00
00
00
00
88
cc
66
7700
66
cc
88
00
00
00
00
00
ENDCHAR
STARTCHAR FracOneFourth
ENCODING 188
SWIDTH 692 0
DWIDTH 9 0
BBX 9 17 0 -4
BITMAP
00
30
70
30
31
32
34
0800
14
24
49
8b
1b
3f80
0300
03
00
ENDCHAR
STARTCHAR FracOneHalf
ENCODING 189
SWIDTH 692 0
DWIDTH 9 0
BBX 9 17 0 -4
BITMAP
00
30
70
3000
31
32
34
08
10
27
4d80
8180
03
06
0c
0f80
00
ENDCHAR
STARTCHAR FracThreeFour
ENCODING 190
SWIDTH 692 0
DWIDTH 9 0
BBX 9 17 0 -4
BITMAP
00
70
18
7000
1900
9a
74
0800
14
24
49
8b
1b
3f80
0300
03
00
ENDCHAR
STARTCHAR InvertQuestion
ENCODING 191
SWIDTH 692 0
DWIDTH 9 0
BBX 7 17 1 -4
BITMAP
00
00
10
38
38
10
00
18
18
38
70
e0
e6
e6
7c
00
00
ENDCHAR
STARTCHAR Agrave
ENCODING 192
SWIDTH 692 0
DWIDTH 9 0
BBX 9 17 0 -4
BITMAP
e000
7000
1800
0800
0800
1c00
1c00
3600
2600
3E00
6300
4300
e780
00
00
00
00
ENDCHAR
STARTCHAR Aacute
ENCODING 193
SWIDTH 692 0
DWIDTH 9 0
BBX 9 17 0 -4
BITMAP
0380
0700
0c00
0800
0800
1c00
1c00
3600
2600
3E00
6300
4300
e780
00
00
00
00
ENDCHAR
STARTCHAR Acircumflex
ENCODING 194
SWIDTH 692 0
DWIDTH 9 0
BBX 9 17 0 -4
BITMAP
0800
3e00
6300
0800
0800
1c00
1c00
3600
2600
3E00
6300
4300
e780
00
00
00
00
ENDCHAR
STARTCHAR Atilde
ENCODING 195
SWIDTH 692 0
DWIDTH 9 0
BBX 9 17 0 -4
BITMAP
1c00
2e80
0700
0800
0800
1c00
1c00
3600
2600
3E00
6300
4300
e780
00
00
00
00
ENDCHAR
STARTCHAR Adiaeresis
ENCODING 196
SWIDTH 692 0
DWIDTH 9 0
BBX 9 17 0 -4
BITMAP
00
3300
3300
0800
0800
1c00
1c00
3600
2600
3E00
6300
4300
e780
00
00
00
00
ENDCHAR
STARTCHAR Abolle
ENCODING 197
SWIDTH 692 0
DWIDTH 9 0
BBX 9 17 0 -4
BITMAP
1800
2400
2400
1800
0800
1c00
1c00
3600
2600
3E00
6300
4300
e780
00
00
00
00
ENDCHAR
STARTCHAR AEdiphthong
ENCODING 198
SWIDTH 692 0
DWIDTH 9 0
BBX 9 17 0 -4
BITMAP
00
00
00
7F80
3c80
3c00
2d00
6f00
6d00
7C00
4c00
cc80
cF80
00
00
00
00
ENDCHAR
STARTCHAR Ccedilla
ENCODING 199
SWIDTH 692 0
DWIDTH 9 0
BBX 7 17 1 -4
BITMAP
00
00
00
3E
62
c2
c0
c0
c0
c0
c2
66
3C
10
38
0c
78
ENDCHAR
STARTCHAR Egrave
ENCODING 200
SWIDTH 692 0
DWIDTH 9 0
BBX 8 17 1 -4
BITMAP
e0
70
18
00
Ff
61
61
64
7c
64
61
61
Ff
00
00
00
00
ENDCHAR
STARTCHAR Eacute
ENCODING 201
SWIDTH 692 0
DWIDTH 9 0
BBX 8 17 1 -4
BITMAP
07
0e
18
00
Ff
61
61
64
7c
64
61
61
Ff
00
00
00
00
ENDCHAR
STARTCHAR Ecircumflex
ENCODING 202
SWIDTH 692 0
DWIDTH 9 0
BBX 8 17 1 -4
BITMAP
18
3C
66
00
Ff
61
61
64
7c
64
61
61
Ff
00
00
00
00
ENDCHAR
STARTCHAR Ediaeresis
ENCODING 203
SWIDTH 692 0
DWIDTH 9 0
BBX 8 17 1 -4
BITMAP
00
66
66
00
Ff
61
61
64
7c
64
61
61
Ff
00
00
00
00
ENDCHAR
STARTCHAR Igrave
ENCODING 204
SWIDTH 692 0
DWIDTH 9 0
BBX 7 17 1 -4
BITMAP
e0
70
18
00
7e
18
18
18
18
18
18
18
7e
00
00
00
00
ENDCHAR
STARTCHAR Iacute
ENCODING 205
SWIDTH 692 0
DWIDTH 9 0
BBX 7 17 2 -4
BITMAP
0e
1c
30
00
Fc
30
30
30
30
30
30
30
Fc
00
00
00
00
ENDCHAR
STARTCHAR Icircumflex
ENCODING 206
SWIDTH 692 0
DWIDTH 9 0
BBX 6 17 2 -4
BITMAP
30
78
cc
00
fc
30
30
30
30
30
30
30
fc
00
00
00
00
ENDCHAR
STARTCHAR Idiaeresis
ENCODING 207
SWIDTH 692 0
DWIDTH 9 0
BBX 6 17 2 -4
BITMAP
00
Cc
Cc
00
fC
30
30
30
30
30
30
30
fC
00
00
00
00
ENDCHAR
STARTCHAR Eth
ENCODING 208
SWIDTH 692 0
DWIDTH 9 0
BBX 8 17 1 -4
BITMAP
00
00
00
FC
66
63
63
F3
63
63
63
66
FC
00
00
00
00
ENDCHAR
STARTCHAR Ntilde
ENCODING 209
SWIDTH 692 0
DWIDTH 9 0
BBX 8 17 1 -4
BITMAP
3900
5d00
4e
00
e700
62
72
72
5a
4e
4e
46
e6
00
00
00
00
ENDCHAR
STARTCHAR Ograve
ENCODING 210
SWIDTH 692 0
DWIDTH 9 0
BBX 8 17 1 -4
BITMAP
e0
70
18
00
3C
66
c3
c3
c3
c3
c3
66
3C
00
00
00
00
ENDCHAR
STARTCHAR Oacute
ENCODING 211
SWIDTH 692 0
DWIDTH 9 0
BBX 8 17 1 -4
BITMAP
07
0e
18
00
3C
66
c3
c3
c3
c3
c3
66
3C
00
00
00
00
ENDCHAR
STARTCHAR Ocircumflex
ENCODING 212
SWIDTH 692 0
DWIDTH 9 0
BBX 8 17 1 -4
BITMAP
18
3C
66
00
3C
66
c3
c3
c3
c3
c3
66
3C
00
00
00
00
ENDCHAR
STARTCHAR Otilde
ENCODING 213
SWIDTH 692 0
DWIDTH 9 0
BBX 8 17 1 -4
BITMAP
38
5d
0e
00
3C
66
c3
c3
c3
c3
c3
66
3C
00
00
00
00
ENDCHAR
STARTCHAR Odiaeresis
ENCODING 214
SWIDTH 692 0
DWIDTH 9 0
BBX 8 17 1 -4
BITMAP
00
66
66
00
3C
66
c3
c3
c3
c3
c3
66
3C
00
00
00
00
ENDCHAR
STARTCHAR MultiplySign
ENCODING 215
SWIDTH 692 0
DWIDTH 9 0
BBX 9 17 0 -4
BITMAP
00
00
00
00
c3
e7
7e
3c
3c
7e
e7
c3
00
00
00
00
00
ENDCHAR
STARTCHAR Ooblique
ENCODING 216
SWIDTH 692 0
DWIDTH 9 0
BBX 8 17 1 -4
BITMAP
00
01
02
3E
66
c7
cb
cb
d3
d3
e3
66
7C
40
80
00
00
ENDCHAR
STARTCHAR Ugrave
ENCODING 217
SWIDTH 692 0
DWIDTH 9 0
BBX 8 17 1 -4
BITMAP
e0
70
18
00
f7
62
62
62
62
62
62
62
3C
00
00
00
00
ENDCHAR
STARTCHAR Uacute
ENCODING 218
SWIDTH 692 0
DWIDTH 9 0
BBX 8 17 1 -4
BITMAP
07
0e
18
00
f7
62
62
62
62
62
62
62
3C
00
00
00
00
ENDCHAR
STARTCHAR Ucircumflex
ENCODING 219
SWIDTH 692 0
DWIDTH 9 0
BBX 8 17 1 -4
BITMAP
18
3C
66
00
f7
62
62
62
62
62
62
62
3C
00
00
00
00
ENDCHAR
STARTCHAR Udiaeresis
ENCODING 220
SWIDTH 692 0
DWIDTH 9 0
BBX 8 17 1 -4
BITMAP
00
66
66
00
f7
62
62
62
62
62
62
62
3C
00
00
00
00
ENDCHAR
STARTCHAR Yacute
ENCODING 221
SWIDTH 692 0
DWIDTH 9 0
BBX 9 17 0 -4
BITMAP
0380
0700
0c00
0000
f380
6100
3300
3200
1e00
1c00
0c00
0c00
3f00
00
00
00
00
ENDCHAR
STARTCHAR Thorn
ENCODING 222
SWIDTH 692 0
DWIDTH 9 0
BBX 8 17 1 -4
BITMAP
00
00
00
f0
60
7e
6300
6300
6300
6300
7e
60
f0
00
00
00
00
ENDCHAR
STARTCHAR EsZetLigature
ENCODING 223
SWIDTH 692 0
DWIDTH 9 0
BBX 8 17 1 -4
BITMAP
00
00
00
3C
66
66
6c
6E
63
63
63
6b
6E
60
e0
00
00
ENDCHAR
STARTCHAR agrave
ENCODING 224
SWIDTH 692 0
DWIDTH 9 0
BBX 8 17 1 -4
BITMAP
00
00
e0
70
18
00
3c
66
06
7e
c6
ce
7b
00
00
00
00
ENDCHAR
STARTCHAR aacute
ENCODING 225
SWIDTH 692 0
DWIDTH 9 0
BBX 8 17 1 -4
BITMAP
00
00
07
0e
18
00
3c
66
06
7e
c6
ce
7b
00
00
00
00
ENDCHAR
STARTCHAR acircumflex
ENCODING 226
SWIDTH 692 0
DWIDTH 9 0
BBX 8 17 1 -4
BITMAP
00
00
18
3c
66
00
3c
66
06
7e
c6
ce
7b
00
00
00
00
ENDCHAR
STARTCHAR atilde
ENCODING 227
SWIDTH 692 0
DWIDTH 9 0
BBX 8 17 1 -4
BITMAP
00
00
3800
5d00
0e
00
3c
66
06
7e
c6
ce
7b00
00
00
00
00
ENDCHAR
STARTCHAR adiaeresis
ENCODING 228
SWIDTH 692 0
DWIDTH 9 0
BBX 8 17 1 -4
BITMAP
00
00
00
66
66
00
3c
66
06
7e
c6
ce
7b
00
00
00
00
ENDCHAR
STARTCHAR abolle
ENCODING 229
SWIDTH 692 0
DWIDTH 9 0
BBX 8 17 1 -4
BITMAP
00
1c
36
36
1c
00
3c
66
06
7e
c6
ce
7b00
00
00
00
00
ENDCHAR
STARTCHAR aedihthong
ENCODING 230
SWIDTH 692 0
DWIDTH 9 0
BBX 9 17 0 -4
BITMAP
00
00
00
00
00
00
7700
9d80
1980
7F80
d800
dc80
6f00
00
00
00
00
ENDCHAR
STARTCHAR ccedilla
ENCODING 231
SWIDTH 692 0
DWIDTH 9 0
BBX 7 17 1 -4
BITMAP
00
00
00
00
00
00
7c
c6
c0
c0
c0
c6
7c
10
38
0c
78
ENDCHAR
STARTCHAR egrave
ENCODING 232
SWIDTH 692 0
DWIDTH 9 0
BBX 7 17 1 -4
BITMAP
00
00
e0
70
18
00
7c
c6
c6
fe
c0
c6
7c
00
00
00
00
ENDCHAR
STARTCHAR eacute
ENCODING 233
SWIDTH 692 0
DWIDTH 9 0
BBX 7 17 1 -4
BITMAP
00
00
0e00
1c
30
00
7c
c6
c6
fe
c0
c6
7c
00
00
00
00
ENDCHAR
STARTCHAR ecircumflex
ENCODING 234
SWIDTH 692 0
DWIDTH 9 0
BBX 7 17 1 -4
BITMAP
00
00
18
3c
66
00
7c
c6
c6
fe
c0
c6
7c
00
00
00
00
ENDCHAR
STARTCHAR ediaeresis
ENCODING 235
SWIDTH 692 0
DWIDTH 9 0
BBX 7 17 1 -4
BITMAP
00
00
00
66
66
00
7c
c6
c6
fe
c0
c6
7c
00
00
00
00
ENDCHAR
STARTCHAR igrave
ENCODING 236
SWIDTH 692 0
DWIDTH 9 0
BBX 7 17 1 -4
BITMAP
00
00
e0
70
18
00
78
18
18
18
18
18
7e
00
00
00
00
ENDCHAR
STARTCHAR iacute
ENCODING 237
SWIDTH 692 0
DWIDTH 9 0
BBX 6 17 2 -4
BITMAP
00
00
1c
38
60
00
f0
30
30
30
30
30
fc
00
00
00
00
ENDCHAR
STARTCHAR icircumflex
ENCODING 238
SWIDTH 692 0
DWIDTH 9 0
BBX 6 17 2 -4
BITMAP
00
00
30
78
cc
00
f0
30
30
30
30
30
fc
00
00
00
00
ENDCHAR
STARTCHAR idiaeresis
ENCODING 239
SWIDTH 692 0
DWIDTH 9 0
BBX 6 17 2 -4
BITMAP
00
00
00
cc
cc
00
f0
30
30
30
30
30
fc
00
00
00
00
ENDCHAR
STARTCHAR ethIcelandic
ENCODING 240
SWIDTH 692 0
DWIDTH 9 0
BBX 6 17 2 -4
BITMAP
00
00
c8
78
70
d8
18
7c
cc
cc
cc
cc
78
00
00
00
00
ENDCHAR
STARTCHAR ntilde
ENCODING 241
SWIDTH 692 0
DWIDTH 9 0
BBX 8 17 1 -4
BITMAP
00
00
7000
ba00
1c
00
dc
76
66
66
66
66
ef00
00
00
00
00
ENDCHAR
STARTCHAR ograve
ENCODING 242
SWIDTH 692 0
DWIDTH 9 0
BBX 7 17 1 -4
BITMAP
00
00
e0
70
18
00
7c
c6
c6
c6
c6
c6
7c
00
00
00
00
ENDCHAR
STARTCHAR oacute
ENCODING 243
SWIDTH 692 0
DWIDTH 9 0
BBX 7 17 1 -4
BITMAP
00
00
0e00
1c
30
00
7c
c6
c6
c6
c6
c6
7c
00
00
00
00
ENDCHAR
STARTCHAR ocircumflex
ENCODING 244
SWIDTH 692 0
DWIDTH 9 0
BBX 7 17 1 -4
BITMAP
00
00
18
3c
66
00
7c
c6
c6
c6
c6
c6
7c
00
00
00
00
ENDCHAR
STARTCHAR otilde
ENCODING 245
SWIDTH 692 0
DWIDTH 9 0
BBX 7 17 1 -4
BITMAP
00
00
70
ba
1c
00
7c
c6
c6
c6
c6
c6
7c
00
00
00
00
ENDCHAR
STARTCHAR odiaeresis
ENCODING 246
SWIDTH 692 0
DWIDTH 9 0
BBX 7 17 1 -4
BITMAP
00
00
00
66
66
00
7c
c6
c6
c6
c6
c6
7c
00
00
00
00
ENDCHAR
STARTCHAR DivideSign
ENCODING 247
SWIDTH 692 0
DWIDTH 9 0
BBX 8 17 1 -4
BITMAP
00
00
00
00
18
18
00
ff
ff
00
18
18
00
00
00
00
00
ENDCHAR
STARTCHAR ooblique
ENCODING 248
SWIDTH 692 0
DWIDTH 9 0
BBX 7 17 1 -4
BITMAP
00
00
00
00
02
06
7c
ce
ce
d6
d6
e6
7c
c0
80
00
00
ENDCHAR
STARTCHAR ugrave
ENCODING 249
SWIDTH 692 0
DWIDTH 9 0
BBX 8 17 1 -4
BITMAP
00
00
e0
70
18
00
ee
66
66
66
66
6e
3b00
00
00
00
00
ENDCHAR
STARTCHAR uacute
ENCODING 250
SWIDTH 692 0
DWIDTH 9 0
BBX 8 17 1 -4
BITMAP
00
00
0700
0e
18
00
ee
66
66
66
66
6e
3b00
00
00
00
00
ENDCHAR
STARTCHAR ucircumflex
ENCODING 251
SWIDTH 692 0
DWIDTH 9 0
BBX 8 17 1 -4
BITMAP
00
00
18
3c
66
00
ee
66
66
66
66
6e
3b00
00
00
00
00
ENDCHAR
STARTCHAR udiaeresis
ENCODING 252
SWIDTH 692 0
DWIDTH 9 0
BBX 8 17 1 -4
BITMAP
00
00
00
66
66
00
ee
66
66
66
66
6e
3b00
00
00
00
00
ENDCHAR
STARTCHAR yacute
ENCODING 253
SWIDTH 692 0
DWIDTH 9 0
BBX 8 17 1 -4
BITMAP
00
00
0700
0e
18
00
f700
62
66
34
3c
18
18
10
70
60
00
ENDCHAR
STARTCHAR thorn
ENCODING 254
SWIDTH 692 0
DWIDTH 9 0
BBX 8 17 1 -4
BITMAP
00
00
00
e0
60
60
6e
7300
6300
6300
6300
7300
6e
60
60
f0
00
ENDCHAR
STARTCHAR ydiaeresis
ENCODING 255
SWIDTH 692 0
DWIDTH 9 0
BBX 8 17 1 -4
BITMAP
00
00
00
66
66
00
f7
62
66
34
3c
18
18
10
70
60
00
ENDCHAR
ENDFONT
